<svg width="32" height="32" viewBox="0 0 32 32" fill="none" xmlns="http://www.w3.org/2000/svg">
<rect width="32" height="32" rx="6" fill="white"/>
<path d="M24 9.95846V5.84615C24 5.35652 23.8127 4.88695 23.4793 4.54073C23.1459 4.1945 22.6937 4 22.2222 4H9.77778C9.30628 4 8.8541 4.1945 8.5207 4.54073C8.1873 4.88695 8 5.35652 8 5.84615V10C8.00082 10.2866 8.06555 10.5691 8.18912 10.8253C8.31268 11.0816 8.49173 11.3046 8.71222 11.4769L14.5189 16L8.71111 20.5231C8.49076 20.6955 8.31188 20.9185 8.1885 21.1748C8.06512 21.431 8.0006 21.7135 8 22V26.1538C8 26.6435 8.1873 27.1131 8.5207 27.4593C8.8541 27.8055 9.30628 28 9.77778 28H22.2222C22.6937 28 23.1459 27.8055 23.4793 27.4593C23.8127 27.1131 24 26.6435 24 26.1538V22.0415C24 21.7559 23.9362 21.4742 23.8136 21.2185C23.6909 20.9628 23.5129 20.7402 23.2933 20.5681L17.4733 16L23.2933 11.4319C23.5125 11.2595 23.6904 11.0368 23.813 10.7812C23.9356 10.5256 23.9996 10.244 24 9.95846Z" fill="black"/>
</svg>
